<svg width="158" height="30" viewBox="0 0 158 30" fill="none" xmlns="http://www.w3.org/2000/svg">
<path d="M154.084 0.27789C144.604 4.78195 140.369 4.28109 139.081 3.21677C138.974 3.12831 138.743 3.20719 138.743 3.34608C138.743 4.39946 138.82 5.57741 139.667 6.20295C141.556 7.59705 145.394 6.72959 147.746 5.85698C147.976 5.7717 148.213 5.97686 148.156 6.2151L143.382 25.8999C143.299 26.2414 143.044 26.5177 142.703 26.6031C140.161 27.2402 137.027 27.0507 135.685 26.7154C135.518 26.6737 135.341 26.7659 135.315 26.9365C135.126 28.2204 135.854 30.2372 140.158 29.9771C147.122 29.0243 154.206 29.1988 157.184 29.4235C157.354 29.4363 157.501 29.3063 157.5 29.1366C157.492 26.5873 155.71 26.0977 154.746 26.0977C154.746 26.0977 152.711 25.9625 149.71 26.0473C149.044 26.0662 148.534 25.4496 148.69 24.8015L154.514 0.617626C154.573 0.371205 154.313 0.16912 154.084 0.27789Z" fill="#006D9E"/>
<path d="M6.90836 27.9808C4.5243 27.9808 2.77689 27.5183 1.66613 26.5933C0.555378 25.6433 0 24.1058 0 21.9808V15.2308C0 13.1308 0.555378 11.6058 1.66613 10.6558C2.80398 9.70577 4.55139 9.23077 6.90836 9.23077H12.1506V12.0433H6.50199C5.4996 12.0433 4.74103 12.2558 4.22629 12.6808C3.71155 13.1058 3.45418 13.7058 3.45418 14.4808V22.7308C3.45418 23.5058 3.71155 24.1058 4.22629 24.5308C4.74103 24.9558 5.4996 25.1683 6.50199 25.1683H12.1506V27.9808H6.90836Z" fill="#212529"/>
<path d="M30.7235 21.9808C30.7235 24.0808 30.1546 25.6058 29.0167 26.5558C27.906 27.5058 26.1721 27.9808 23.8151 27.9808H22.4741C20.1171 27.9808 18.3697 27.5058 17.2319 26.5558C16.1211 25.6058 15.5657 24.0808 15.5657 21.9808V15.2308C15.5657 13.1308 16.1211 11.6058 17.2319 10.6558C18.3697 9.70577 20.1171 9.23077 22.4741 9.23077H23.8151C26.1721 9.23077 27.906 9.70577 29.0167 10.6558C30.1546 11.6058 30.7235 13.1308 30.7235 15.2308V21.9808ZM27.2693 14.4808C27.2693 13.7058 27.0119 13.1058 26.4972 12.6808C25.9824 12.2558 25.2239 12.0433 24.2215 12.0433H22.0677C21.0653 12.0433 20.3068 12.2558 19.792 12.6808C19.2773 13.1058 19.0199 13.7058 19.0199 14.4808V22.7308C19.0199 23.5058 19.2773 24.1058 19.792 24.5308C20.3068 24.9558 21.0653 25.1683 22.0677 25.1683H24.2215C25.2239 25.1683 25.9824 24.9558 26.4972 24.5308C27.0119 24.1058 27.2693 23.5058 27.2693 22.7308V14.4808Z" fill="#212529"/>
<path d="M44.5012 27.1183C43.6071 27.6933 42.5235 27.9808 41.2502 27.9808H39.584C37.2 27.9808 35.4526 27.5183 34.3418 26.5933C33.231 25.6433 32.6757 24.1058 32.6757 21.9808V15.2308C32.6757 13.1308 33.231 11.6058 34.3418 10.6558C35.4796 9.70577 37.2271 9.23077 39.584 9.23077H44.298V1.73077H47.7522V27.9808H44.5012V27.1183ZM41.6565 25.1683C42.5506 25.1683 43.2143 24.9558 43.6478 24.5308C44.0812 24.0808 44.298 23.6058 44.298 23.1058V12.0433H39.1777C38.1753 12.0433 37.4167 12.2558 36.902 12.6808C36.3872 13.1058 36.1298 13.7058 36.1298 14.4808V22.7308C36.1298 23.5058 36.3872 24.1058 36.902 24.5308C37.4167 24.9558 38.1753 25.1683 39.1777 25.1683H41.6565Z" fill="#212529"/>
<path d="M57.0597 27.9808C54.6756 27.9808 52.9282 27.5183 51.8175 26.5933C50.7067 25.6433 50.1513 24.1058 50.1513 21.9808V15.2308C50.1513 13.0808 50.6525 11.5433 51.6549 10.6183C52.6573 9.69327 54.3235 9.23077 56.6533 9.23077H58.5633C60.4868 9.23077 61.9362 9.73077 62.9115 10.7308C63.9139 11.7058 64.4151 13.1433 64.4151 15.0433V19.9183H53.6055V22.7308C53.6055 23.5058 53.8629 24.1058 54.3776 24.5308C54.8924 24.9558 55.6509 25.1683 56.6533 25.1683H63.1147V27.9808H57.0597ZM61.0422 14.2933C61.0422 13.6433 60.8119 13.1058 60.3513 12.6808C59.8908 12.2558 59.3083 12.0433 58.6039 12.0433H56.247C55.2717 12.0433 54.5808 12.2558 54.1745 12.6808C53.7952 13.0808 53.6055 13.6808 53.6055 14.4808V17.1058H61.0422V14.2933Z" fill="#212529"/>
<path d="M75.6732 27.9808C74.7521 27.9808 73.9394 27.6808 73.235 27.0808C72.5577 26.4808 72.2191 25.5308 72.2191 24.2308V4.54327H66.2454V1.73077H75.6732V24.0433C75.6732 24.4433 75.7816 24.7308 75.9983 24.9058C76.2151 25.0808 76.5808 25.1683 77.0956 25.1683H82.5003V27.9808H75.6732Z" fill="#212529"/>
<path d="M93.3521 1.73077V5.10577H89.4915V1.73077H93.3521ZM83.721 12.0433V9.23077H93.1489V25.1683H99.1633V27.9808H89.6947V12.0433H83.721Z" fill="#212529"/>
<path d="M104.326 9.23077V10.1308C105.166 9.53077 106.249 9.23077 107.577 9.23077H109.446C111.641 9.23077 113.266 9.70577 114.323 10.6558C115.406 11.6058 115.948 13.1308 115.948 15.2308V27.9808H112.494V14.4808C112.494 13.7308 112.25 13.1433 111.762 12.7183C111.302 12.2683 110.665 12.0433 109.852 12.0433H107.17C106.276 12.0433 105.613 12.2683 105.179 12.7183C104.746 13.1433 104.529 13.6058 104.529 14.1058V27.9808H101.075V9.23077H104.326Z" fill="#212529"/>
<path d="M125.337 27.9808C122.953 27.9808 121.205 27.5183 120.095 26.5933C118.984 25.6433 118.429 24.1058 118.429 21.9808V15.2308C118.429 13.0808 118.93 11.5433 119.932 10.6183C120.935 9.69327 122.601 9.23077 124.931 9.23077H126.841C128.764 9.23077 130.213 9.73077 131.189 10.7308C132.191 11.7058 132.692 13.1433 132.692 15.0433V19.9183H121.883V22.7308C121.883 23.5058 122.14 24.1058 122.655 24.5308C123.17 24.9558 123.928 25.1683 124.931 25.1683H131.392V27.9808H125.337ZM129.319 14.2933C129.319 13.6433 129.089 13.1058 128.629 12.6808C128.168 12.2558 127.586 12.0433 126.881 12.0433H124.524C123.549 12.0433 122.858 12.2558 122.452 12.6808C122.072 13.0808 121.883 13.6808 121.883 14.4808V17.1058H129.319V14.2933Z" fill="#212529"/>
</svg>
