<svg width="632" height="318" viewBox="0 0 632 318" fill="none" xmlns="http://www.w3.org/2000/svg">
<g clip-path="url(#clip0_13_363)">
<mask id="mask0_13_363" style="mask-type:luminance" maskUnits="userSpaceOnUse" x="0" y="-105" width="632" height="423">
<path d="M0 317.679H631.576V-105H0V317.679Z" fill="white"/>
</mask>
<g mask="url(#mask0_13_363)">
<path d="M-166.611 203.431C-105.012 235.743 -56.9053 238.519 -21.645 232.727C79.5347 216.111 142.999 117.783 188.211 139.895C208.989 150.056 203.39 174.636 228.435 183.42C256.953 193.423 275.566 165.537 321.555 159.665C374.578 152.896 386.969 185.218 421.362 177.112C485.182 162.066 477.762 40.8065 533.927 26.2852C557.985 20.0652 596.109 31.1625 658.551 103.324C677.033 199.084 695.514 294.844 713.995 390.604L-63.6944 507.885C-98.0001 406.4 -132.306 304.916 -166.611 203.431Z" fill="url(#paint0_linear_13_363)"/>
</g>
<path d="M253.627 155.713C255.035 161.656 250.901 169.692 245.955 173.787C236.501 181.616 222.351 176.472 215.645 167.731C209.633 159.895 207.058 145.824 212.371 139.82C214.147 137.812 217.17 136.053 219.537 136.636C224.597 137.878 222.205 148.593 227.534 150.664C230.749 151.915 232.639 148.415 238.617 147.791C243.946 147.235 252.041 149.016 253.627 155.713Z" fill="#81C1FC"/>
<path d="M534.926 1.0345C545.584 4.77316 553.093 15.9545 550.877 19.6838C548.706 23.3358 539.124 16.6145 526.862 20.9438C514.73 25.2278 511.876 36.1305 507.394 34.7078C502.586 33.1798 499.782 18.6865 506.229 9.06252C512.485 -0.277478 525.588 -2.24284 534.926 1.0345Z" fill="#81C1FC"/>
<path d="M477.743 25.5959C481.071 21.4732 497.846 24.6159 500.426 33.8292C501.692 38.3479 499.669 44.7759 495.426 46.2945C490.556 48.0399 485.299 42.4012 483.385 40.3465C479.578 36.2625 475.294 28.6279 477.743 25.5959Z" fill="#81C1FC"/>
<path d="M266.82 143.76C270.865 142.193 277.638 146.766 278.962 152.074C281.325 161.546 266.154 172.658 262.073 170.429C259.51 169.028 260.752 162.06 261.866 155.802C263.036 149.232 263.802 144.928 266.82 143.76Z" fill="#81C1FC"/>
<mask id="mask1_13_363" style="mask-type:luminance" maskUnits="userSpaceOnUse" x="306" y="26" width="169" height="150">
<path d="M417.187 30.9665C398.094 18.5705 373.826 34.8825 363.339 50.5545C356.937 60.1225 351.815 69.9012 344.126 78.6438C335.15 88.8478 322.765 96.4452 314.751 107.405C284.866 148.278 346.575 189.908 383.477 169.809C399.941 160.841 407.977 140.763 426.487 153.924C435.937 160.643 440.102 169.823 453.93 168.451C466.375 167.216 472.602 157.505 474.127 145.797C477.623 118.94 450.114 108.577 439.881 87.3625C431.99 71.0012 433.858 41.7919 417.187 30.9665Z" fill="white"/>
</mask>
<g mask="url(#mask1_13_363)">
<path d="M417.187 30.9665C398.094 18.5705 373.826 34.8825 363.339 50.5545C356.937 60.1225 351.815 69.9012 344.126 78.6438C335.15 88.8478 322.765 96.4452 314.751 107.405C284.866 148.278 346.575 189.908 383.477 169.809C399.941 160.841 407.977 140.763 426.487 153.924C435.937 160.643 440.102 169.823 453.93 168.451C466.375 167.216 472.602 157.505 474.127 145.797C477.623 118.94 450.114 108.577 439.881 87.3625C431.99 71.0012 433.858 41.7919 417.187 30.9665Z" fill="url(#paint1_linear_13_363)"/>
</g>
<mask id="mask2_13_363" style="mask-type:luminance" maskUnits="userSpaceOnUse" x="233" y="100" width="127" height="71">
<path d="M240.422 156.625C232.076 145.378 230.95 126.95 238.728 120.769C246.477 114.61 256.133 126.124 275.785 126.62C309.63 127.474 325.217 94.4438 344.246 101.909C354.26 105.838 360.057 118.952 359.404 129.009C357.801 153.658 316.918 167.865 290.372 170.05C278.224 171.05 252.686 173.153 240.422 156.625Z" fill="white"/>
</mask>
<g mask="url(#mask2_13_363)">
<path d="M240.422 156.625C232.076 145.378 230.95 126.95 238.728 120.769C246.477 114.61 256.133 126.124 275.785 126.62C309.63 127.474 325.217 94.4438 344.246 101.909C354.26 105.838 360.057 118.952 359.404 129.009C357.801 153.658 316.918 167.865 290.372 170.05C278.224 171.05 252.686 173.153 240.422 156.625Z" fill="url(#paint2_linear_13_363)"/>
</g>
<mask id="mask3_13_363" style="mask-type:luminance" maskUnits="userSpaceOnUse" x="386" y="87" width="108" height="98">
<path d="M461.391 87.0838C475.322 86.5345 488.487 99.2758 492.527 112.108C500.251 136.644 476.031 166.001 451.175 177.167C428.896 187.175 396.618 186.783 388.872 172.296C386.283 167.452 385.394 159.934 388.854 154.901C396.253 144.141 416.736 154.159 426.143 143.161C431.815 136.528 426.167 130.776 430.465 117.153C434.297 105.007 445.687 87.7052 461.391 87.0838Z" fill="white"/>
</mask>
<g mask="url(#mask3_13_363)">
<path d="M461.391 87.0838C475.322 86.5345 488.487 99.2758 492.527 112.108C500.251 136.644 476.031 166.001 451.175 177.167C428.896 187.175 396.618 186.783 388.872 172.296C386.283 167.452 385.394 159.934 388.854 154.901C396.253 144.141 416.736 154.159 426.143 143.161C431.815 136.528 426.167 130.776 430.465 117.153C434.297 105.007 445.687 87.7052 461.391 87.0838Z" fill="url(#paint3_linear_13_363)"/>
</g>
<mask id="mask4_13_363" style="mask-type:luminance" maskUnits="userSpaceOnUse" x="392" y="35" width="89" height="78">
<path d="M444.134 35.3251C464.941 36.8011 482.84 53.8171 480.218 61.9358C477.652 69.8891 457.668 62.2825 436.994 76.7251C416.54 91.0171 415.472 112.878 406.777 112.537C397.448 112.17 386.862 86.5251 394.95 65.1945C402.801 44.4918 425.898 34.0331 444.134 35.3251Z" fill="white"/>
</mask>
<g mask="url(#mask4_13_363)">
<path d="M444.134 35.3251C464.941 36.8011 482.84 53.8171 480.218 61.9358C477.652 69.8891 457.668 62.2825 436.994 76.7251C416.54 91.0171 415.472 112.878 406.777 112.537C397.448 112.17 386.862 86.5251 394.95 65.1945C402.801 44.4918 425.898 34.0331 444.134 35.3251Z" fill="url(#paint4_linear_13_363)"/>
</g>
<mask id="mask5_13_363" style="mask-type:luminance" maskUnits="userSpaceOnUse" x="483" y="44" width="78" height="48">
<path d="M492.09 88.9771C484.538 84.3985 482.035 73.0651 484.385 64.8731C488.879 49.2118 511.937 42.1652 528.971 44.9532C544.239 47.4532 561.155 58.9398 560.186 69.3011C559.861 72.7651 557.703 77.0478 554.117 78.4972C546.446 81.5985 539.126 69.1451 530.313 71.6678C524.995 73.1891 525.971 78.2038 518.938 83.8998C512.669 88.9772 500.603 94.1371 492.09 88.9771Z" fill="white"/>
</mask>
<g mask="url(#mask5_13_363)">
<path d="M492.09 88.9771C484.538 84.3985 482.035 73.0651 484.385 64.8731C488.879 49.2118 511.937 42.1652 528.971 44.9532C544.239 47.4532 561.155 58.9398 560.186 69.3011C559.861 72.7651 557.703 77.0478 554.117 78.4972C546.446 81.5985 539.126 69.1451 530.313 71.6678C524.995 73.1891 525.971 78.2038 518.938 83.8998C512.669 88.9772 500.603 94.1371 492.09 88.9771Z" fill="url(#paint5_linear_13_363)"/>
</g>
<mask id="mask6_13_363" style="mask-type:luminance" maskUnits="userSpaceOnUse" x="349" y="107" width="29" height="29">
<path d="M377.156 121.608C377.156 129.305 370.917 135.545 363.22 135.545C355.522 135.545 349.282 129.305 349.282 121.608C349.282 113.912 355.522 107.672 363.22 107.672C370.917 107.672 377.156 113.912 377.156 121.608Z" fill="white"/>
</mask>
<g mask="url(#mask6_13_363)">
<path d="M377.156 121.608C377.156 129.305 370.917 135.545 363.22 135.545C355.522 135.545 349.282 129.305 349.282 121.608C349.282 113.912 355.522 107.672 363.22 107.672C370.917 107.672 377.156 113.912 377.156 121.608Z" fill="url(#paint6_linear_13_363)"/>
</g>
<mask id="mask7_13_363" style="mask-type:luminance" maskUnits="userSpaceOnUse" x="564" y="24" width="29" height="29">
<path d="M592.158 38.2118C592.158 45.9078 585.919 52.1478 578.221 52.1478C570.525 52.1478 564.285 45.9078 564.285 38.2118C564.285 30.5145 570.525 24.2745 578.221 24.2745C585.919 24.2745 592.158 30.5145 592.158 38.2118Z" fill="white"/>
</mask>
<g mask="url(#mask7_13_363)">
<path d="M592.158 38.2118C592.158 45.9078 585.919 52.1478 578.221 52.1478C570.525 52.1478 564.285 45.9078 564.285 38.2118C564.285 30.5145 570.525 24.2745 578.221 24.2745C585.919 24.2745 592.158 30.5145 592.158 38.2118Z" fill="url(#paint7_linear_13_363)"/>
</g>
<path d="M462.872 21.6478C465.602 24.3785 465.602 28.8078 462.872 31.5398C460.14 34.2705 455.71 34.2705 452.98 31.5398C450.248 28.8078 450.248 24.3785 452.98 21.6478C455.71 18.9158 460.14 18.9158 462.872 21.6478Z" fill="#81C1FC"/>
</g>
<defs>
<linearGradient id="paint0_linear_13_363" x1="-2.00001" y1="316" x2="634" y2="224.5" gradientUnits="userSpaceOnUse">
<stop stop-color="#81C1FC"/>
<stop offset="1" stop-color="#3859B1"/>
</linearGradient>
<linearGradient id="paint1_linear_13_363" x1="335.638" y1="74.2478" x2="469.537" y2="159.121" gradientUnits="userSpaceOnUse">
<stop stop-color="#4068D5"/>
<stop offset="1" stop-color="#3E5CB1"/>
</linearGradient>
<linearGradient id="paint2_linear_13_363" x1="234.284" y1="128.108" x2="354.934" y2="152.312" gradientUnits="userSpaceOnUse">
<stop stop-color="#4B72DA"/>
<stop offset="1" stop-color="#425DAD"/>
</linearGradient>
<linearGradient id="paint3_linear_13_363" x1="466.623" y1="86.6972" x2="419.848" y2="190.127" gradientUnits="userSpaceOnUse">
<stop stop-color="#4C74DF"/>
<stop offset="1" stop-color="#3E5DB5"/>
</linearGradient>
<linearGradient id="paint4_linear_13_363" x1="461.88" y1="36.1518" x2="393.553" y2="101.544" gradientUnits="userSpaceOnUse">
<stop stop-color="#4066CB"/>
<stop offset="1" stop-color="#3A56A6"/>
</linearGradient>
<linearGradient id="paint5_linear_13_363" x1="489.19" y1="87.3532" x2="550.051" y2="49.0549" gradientUnits="userSpaceOnUse">
<stop stop-color="#31498E"/>
<stop offset="0.0756862" stop-color="#31498E"/>
<stop offset="1" stop-color="#3859B1"/>
</linearGradient>
<linearGradient id="paint6_linear_13_363" x1="349.282" y1="121.609" x2="377.155" y2="121.609" gradientUnits="userSpaceOnUse">
<stop stop-color="#81C1FC"/>
<stop offset="1" stop-color="#5C80E0"/>
</linearGradient>
<linearGradient id="paint7_linear_13_363" x1="564.285" y1="38.2118" x2="592.158" y2="38.2118" gradientUnits="userSpaceOnUse">
<stop stop-color="#31498E"/>
<stop offset="0.0756862" stop-color="#31498E"/>
<stop offset="1" stop-color="#3859B1"/>
</linearGradient>
<clipPath id="clip0_13_363">
<rect width="632" height="318" fill="white"/>
</clipPath>
</defs>
</svg>
