<svg width="64" height="64" viewBox="0 0 64 64" fill="none" xmlns="http://www.w3.org/2000/svg">
<rect width="64" height="64" rx="10" fill="white"/>
<path d="M45.6086 7.28123C29.5993 14.9788 22.4668 14.1503 20.3047 12.3644C20.1258 12.2166 19.7392 12.3485 19.7392 12.5805C19.7392 14.3338 19.8659 16.2943 21.2748 17.3378C24.5129 19.7361 31.2003 18.12 35.0644 16.6226C35.2931 16.534 35.5286 16.739 35.471 16.9773L27.3583 50.5335C27.2757 50.875 27.0209 51.1502 26.6821 51.2431C22.266 52.4546 16.6158 52.0797 14.456 51.4719C14.2899 51.4252 14.1145 51.5169 14.0807 51.6861C13.6567 53.8077 14.7031 57.4096 22.0904 56.9619C33.8255 55.3512 45.767 55.6734 50.587 56.0552C50.7563 56.0686 50.8995 55.9372 50.9027 55.7675C50.9863 51.3385 47.9561 50.4962 46.3283 50.4962C46.3283 50.4962 42.5447 50.244 37.0808 50.4406C36.4148 50.4645 35.9036 49.8486 36.0591 49.2006L46.0412 7.61814C46.1004 7.37161 45.8371 7.17136 45.6086 7.28123Z" fill="#13668B"/>
</svg>
